<svg  viewBox="0 0 12 12" fill="inherit" xmlns="http://www.w3.org/2000/svg"><path d="M1.484 2.967a1.484 1.484 0 1 0 0-2.967 1.484 1.484 0 0 0 0 2.967m1.236.991H.247A.247.247 0 0 0 0 4.205v7.418c0 .136.11.247.247.247H2.72c.136 0 .247-.11.247-.247V4.205a.247.247 0 0 0-.247-.247m7.368-.412c-1.057-.362-2.379-.044-3.171.527a.25.25 0 0 0-.24-.186H4.205a.247.247 0 0 0-.247.247v7.418c0 .137.11.247.247.247h2.472c.137 0 .248-.11.248-.247v-5.33c.4-.345.914-.455 1.335-.276.409.173.643.594.643 1.155v4.451c0 .137.11.247.247.247h2.473c.136 0 .247-.11.247-.247V6.604c-.028-2.032-.984-2.785-1.782-3.058" fill="inherit"/></svg>